<?xml version="1.0" standalone="no"?>
<!DOCTYPE svg PUBLIC "-//W3C//DTD SVG 20010904//EN"
 "http://www.w3.org/TR/2001/REC-SVG-20010904/DTD/svg10.dtd">
<svg version="1.0" xmlns="http://www.w3.org/2000/svg"
 width="741.000000pt" height="741.000000pt" viewBox="0 0 741.000000 741.000000"
 preserveAspectRatio="xMidYMid meet">
<metadata>
Created by potrace 1.14, written by Peter Selinger 2001-2017
</metadata>
<g transform="translate(0.000000,741.000000) scale(0.100000,-0.100000)"
fill="#000000" stroke="none">
<path d="M3478 7405 c-1 -1 -41 -6 -88 -9 -142 -11 -205 -20 -375 -51 -93 -17
-97 -18 -190 -40 -137 -31 -502 -152 -530 -175 -5 -5 -14 -9 -20 -11 -58 -12
-324 -145 -476 -237 -118 -72 -300 -195 -355 -241 -17 -14 -47 -39 -67 -54
-380 -296 -750 -757 -987 -1227 -123 -245 -264 -635 -295 -821 -3 -19 -10 -47
-15 -64 -5 -16 -11 -46 -14 -65 -3 -19 -10 -62 -16 -95 -6 -33 -13 -80 -15
-105 -3 -25 -7 -54 -10 -65 -31 -151 -26 -736 10 -950 2 -16 7 -48 10 -70 3
-22 10 -60 15 -85 5 -25 12 -63 16 -85 9 -51 7 -42 39 -165 14 -58 28 -112 30
-120 2 -8 22 -71 45 -139 222 -658 626 -1246 1155 -1681 277 -228 555 -399
875 -540 220 -97 531 -195 760 -239 115 -22 280 -46 395 -57 170 -17 621 -10
775 12 43 6 71 10 130 19 38 5 143 24 215 39 388 80 819 257 1185 486 47 29
95 60 106 69 12 9 32 23 44 31 279 187 653 550 853 830 9 14 29 41 43 60 131
178 286 455 387 691 58 137 144 381 162 459 2 8 12 49 23 90 11 41 23 91 26
111 3 20 8 42 10 50 7 19 44 241 50 304 3 28 9 77 13 110 9 79 9 549 0 645
-14 147 -24 225 -48 355 -134 734 -488 1409 -1016 1940 -139 139 -185 180
-425 370 -9 8 -29 22 -45 32 -15 9 -30 20 -33 23 -7 8 -216 142 -270 173 -226
132 -634 305 -828 353 -9 2 -67 17 -128 33 -62 16 -125 32 -140 34 -16 3 -72
12 -124 22 -124 21 -133 22 -210 30 -36 4 -78 9 -95 12 -34 5 -551 13 -557 8z"/>
</g>
</svg>
